<svg width="1200" height="900" viewBox="0 0 1200 900" fill="none" xmlns="http://www.w3.org/2000/svg">
  <!-- Yellow blob background -->
  <ellipse cx="600" cy="400" rx="550" ry="350" fill="#FFF4D6" opacity="0.8"/>

  <!-- Moving truck -->
  <rect x="700" y="200" width="400" height="350" rx="20" fill="#2D5F3F"/>
  <rect x="750" y="250" width="200" height="200" fill="#4A5568"/>
  <rect x="950" y="250" width="140" height="200" fill="#E5E7EB"/>
  <circle cx="800" cy="580" r="40" fill="#2D3748"/>
  <circle cx="1000" cy="580" r="40" fill="#2D3748"/>

  <!-- Boxes on ground -->
  <rect x="400" y="550" width="100" height="100" fill="#8B9467"/>
  <rect x="520" y="570" width="80" height="80" fill="#8B9467"/>
  <circle cx="650" cy="620" r="30" fill="#86C65A"/>
  <circle cx="730" cy="620" r="30" fill="#86C65A"/>

  <!-- Couch -->
  <rect x="300" y="350" width="400" height="150" rx="20" fill="#2563EB"/>
  <rect x="300" y="400" width="400" height="100" rx="15" fill="#60A5FA"/>
  <circle cx="350" cy="500" r="20" fill="#1E3A8A"/>
  <circle cx="650" cy="500" r="20" fill="#1E3A8A"/>

  <!-- Left mover -->
  <circle cx="250" cy="280" r="40" fill="#8FBAAE"/>
  <rect x="230" y="320" width="40" height="80" fill="#2D5F3F"/>
  <rect x="220" y="400" width="60" height="120" fill="#2D3748"/>
  <circle cx="240" cy="530" r="15" fill="#2D5F3F"/>
  <circle cx="260" cy="530" r="15" fill="#2D5F3F"/>

  <!-- Right mover -->
  <circle cx="750" cy="280" r="40" fill="#8FBAAE"/>
  <rect x="730" y="320" width="40" height="80" fill="#2D5F3F"/>
  <rect x="720" y="400" width="60" height="120" fill="#2D3748"/>
  <circle cx="740" cy="530" r="15" fill="#2D5F3F"/>
  <circle cx="760" cy="530" r="15" fill="#2D5F3F"/>

  <!-- Ground shadow -->
  <ellipse cx="500" cy="650" rx="400" ry="50" fill="#D1D5DB" opacity="0.5"/>
</svg>
